<svg width="15" height="14" viewBox="0 0 15 14" fill="none" xmlns="http://www.w3.org/2000/svg">
<path d="M6.7118 5.87305C6.3128 5.87305 5.9978 6.22305 5.9978 6.65005C5.9978 7.07705 6.3198 7.42705 6.7118 7.42705C7.1108 7.42705 7.4258 7.07705 7.4258 6.65005C7.4328 6.22305 7.1108 5.87305 6.7118 5.87305ZM9.2668 5.87305C8.8678 5.87305 8.5528 6.22305 8.5528 6.65005C8.5528 7.07705 8.8748 7.42705 9.2668 7.42705C9.6658 7.42705 9.9808 7.07705 9.9808 6.65005C9.9808 6.22305 9.6658 5.87305 9.2668 5.87305Z" fill="#0F0F0F"/>
<path d="M12.6688 0H3.28876C2.49776 0 1.85376 0.644 1.85376 1.442V10.906C1.85376 11.704 2.49776 12.348 3.28876 12.348H11.2268L10.8558 11.053L11.7518 11.886L12.5988 12.67L14.1038 14V1.442C14.1038 0.644 13.4598 0 12.6688 0ZM9.96676 9.142C9.96676 9.142 9.71476 8.841 9.50476 8.575C10.4218 8.316 10.7718 7.742 10.7718 7.742C10.4848 7.931 10.2118 8.064 9.96676 8.155C9.61676 8.302 9.28076 8.4 8.95176 8.456C8.27976 8.582 7.66376 8.547 7.13876 8.449C6.73976 8.372 6.39676 8.26 6.10976 8.148C5.94876 8.085 5.77376 8.008 5.59876 7.91C5.57776 7.896 5.55676 7.889 5.53576 7.875C5.52176 7.868 5.51476 7.861 5.50776 7.854C5.38176 7.784 5.31176 7.735 5.31176 7.735C5.31176 7.735 5.64776 8.295 6.53676 8.561C6.32676 8.827 6.06776 9.142 6.06776 9.142C4.52076 9.093 3.93276 8.078 3.93276 8.078C3.93276 5.824 4.94076 3.997 4.94076 3.997C5.94876 3.241 6.90776 3.262 6.90776 3.262L6.97776 3.346C5.71776 3.71 5.13676 4.263 5.13676 4.263C5.13676 4.263 5.29076 4.179 5.54976 4.06C6.29876 3.731 6.89376 3.64 7.13876 3.619C7.18076 3.612 7.21576 3.605 7.25776 3.605C7.68476 3.549 8.16776 3.535 8.67176 3.591C9.33676 3.668 10.0508 3.864 10.7788 4.263C10.7788 4.263 10.2258 3.738 9.03576 3.374L9.13376 3.262C9.13376 3.262 10.0928 3.241 11.1008 3.997C11.1008 3.997 12.1088 5.824 12.1088 8.078C12.1088 8.078 11.5138 9.093 9.96676 9.142Z" fill="#0F0F0F"/>
</svg>
