<svg width="15" height="14" viewBox="0 0 15 14" fill="none" xmlns="http://www.w3.org/2000/svg">
<g clip-path="url(#clip0_2556_9972)">
<path d="M14.9443 7C14.9443 3.134 11.8103 0 7.94434 0C4.07834 0 0.944336 3.134 0.944336 7C0.944336 10.4938 3.50412 13.3898 6.85059 13.915V9.02344H5.07324V7H6.85059V5.45781C6.85059 3.70344 7.89566 2.73438 9.49459 2.73438C10.2602 2.73438 11.0615 2.87109 11.0615 2.87109V4.59375H10.1789C9.30934 4.59375 9.03809 5.13338 9.03809 5.6875V7H10.9795L10.6691 9.02344H9.03809V13.915C12.3846 13.3898 14.9443 10.4938 14.9443 7Z" fill="#0F0F0F"/>
</g>
<defs>
<clipPath id="clip0_2556_9972">
<rect width="14" height="14" fill="white" transform="translate(0.944336)"/>
</clipPath>
</defs>
</svg>
