<svg width="15" height="14" viewBox="0 0 15 14" fill="none" xmlns="http://www.w3.org/2000/svg">
<g clip-path="url(#clip0_2359_1757)">
<path d="M5.50079 7C5.50079 5.71138 6.54513 4.66648 7.83375 4.66648C9.12236 4.66648 10.1673 5.71138 10.1673 7C10.1673 8.28862 9.12236 9.33352 7.83375 9.33352C6.54513 9.33352 5.50079 8.28862 5.50079 7ZM4.23933 7C4.23933 8.9852 5.84855 10.5944 7.83375 10.5944C9.81895 10.5944 11.4282 8.9852 11.4282 7C11.4282 5.0148 9.81895 3.40558 7.83375 3.40558C5.84855 3.40558 4.23933 5.0148 4.23933 7ZM10.7305 3.26306C10.7304 3.4292 10.7796 3.59163 10.8718 3.7298C10.9641 3.86797 11.0952 3.97569 11.2487 4.03933C11.4022 4.10297 11.5711 4.11967 11.734 4.08732C11.897 4.05498 12.0467 3.97504 12.1642 3.85761C12.2817 3.74018 12.3618 3.59054 12.3943 3.42761C12.4267 3.26467 12.4102 3.09577 12.3467 2.94226C12.2831 2.78874 12.1755 2.65751 12.0374 2.56515C11.8993 2.4728 11.7369 2.42347 11.5708 2.4234H11.5705C11.3478 2.4235 11.1342 2.51199 10.9767 2.66943C10.8192 2.82686 10.7307 3.04037 10.7305 3.26306ZM5.00574 12.6978C4.32327 12.6668 3.95233 12.5531 3.70582 12.457C3.379 12.3298 3.14581 12.1783 2.90065 11.9334C2.65548 11.6886 2.50372 11.4556 2.37705 11.1288C2.28095 10.8824 2.16727 10.5114 2.13625 9.8289C2.10231 9.09104 2.09553 8.86939 2.09553 7.00006C2.09553 5.13072 2.10287 4.90969 2.13625 4.17122C2.16733 3.48874 2.28185 3.11842 2.37705 2.87129C2.50428 2.54447 2.65581 2.31129 2.90065 2.06612C3.14548 1.82095 3.37844 1.66919 3.70582 1.54252C3.95222 1.44642 4.32327 1.33274 5.00574 1.30172C5.7436 1.26778 5.96525 1.26101 7.83375 1.26101C9.70225 1.26101 9.92412 1.26834 10.6626 1.30172C11.3451 1.3328 11.7154 1.44732 11.9625 1.54252C12.2893 1.66919 12.5225 1.82129 12.7677 2.06612C13.0129 2.31095 13.1641 2.54447 13.2913 2.87129C13.3874 3.11769 13.5011 3.48874 13.5321 4.17122C13.566 4.90969 13.5728 5.13072 13.5728 7.00006C13.5728 8.86939 13.566 9.09042 13.5321 9.8289C13.501 10.5114 13.3868 10.8823 13.2913 11.1288C13.1641 11.4556 13.0125 11.6888 12.7677 11.9334C12.5229 12.178 12.2893 12.3298 11.9625 12.457C11.7161 12.5531 11.3451 12.6668 10.6626 12.6978C9.92473 12.7318 9.70309 12.7385 7.83375 12.7385C5.96441 12.7385 5.74338 12.7318 5.00574 12.6978ZM4.94778 0.042392C4.20259 0.076328 3.69338 0.194488 3.24869 0.367528C2.78814 0.546224 2.39827 0.78596 2.00868 1.17494C1.61909 1.56391 1.37996 1.9544 1.20127 2.41494C1.02823 2.85992 0.910068 3.36885 0.876132 4.11404C0.841636 4.86041 0.83374 5.09902 0.83374 7C0.83374 8.90098 0.841636 9.13959 0.876132 9.88596C0.910068 10.6312 1.02823 11.1401 1.20127 11.5851C1.37996 12.0453 1.61914 12.4363 2.00868 12.8251C2.39821 13.2139 2.78814 13.4533 3.24869 13.6325C3.69422 13.8055 4.20259 13.9237 4.94778 13.9576C5.69455 13.9915 5.93277 14 7.83375 14C9.73473 14 9.97334 13.9921 10.7197 13.9576C11.465 13.9237 11.9738 13.8055 12.4188 13.6325C12.8791 13.4533 13.2692 13.214 13.6588 12.8251C14.0484 12.4361 14.287 12.0453 14.4662 11.5851C14.6393 11.1401 14.758 10.6312 14.7914 9.88596C14.8253 9.13903 14.8332 8.90098 14.8332 7C14.8332 5.09902 14.8253 4.86041 14.7914 4.11404C14.7574 3.36879 14.6393 2.85964 14.4662 2.41494C14.287 1.95468 14.0478 1.56453 13.6588 1.17494C13.2698 0.785344 12.8791 0.546224 12.4194 0.367528C11.9738 0.194488 11.4649 0.075768 10.7203 0.042392C9.9739 0.008456 9.73529 0 7.83431 0C5.93333 0 5.69455 0.007896 4.94778 0.042392Z" fill="#0F0F0F"/>
<path d="M5.50079 7C5.50079 5.71138 6.54513 4.66648 7.83375 4.66648C9.12236 4.66648 10.1673 5.71138 10.1673 7C10.1673 8.28862 9.12236 9.33352 7.83375 9.33352C6.54513 9.33352 5.50079 8.28862 5.50079 7ZM4.23933 7C4.23933 8.9852 5.84855 10.5944 7.83375 10.5944C9.81895 10.5944 11.4282 8.9852 11.4282 7C11.4282 5.0148 9.81895 3.40558 7.83375 3.40558C5.84855 3.40558 4.23933 5.0148 4.23933 7ZM10.7305 3.26306C10.7304 3.4292 10.7796 3.59163 10.8718 3.7298C10.9641 3.86797 11.0952 3.97569 11.2487 4.03933C11.4022 4.10297 11.5711 4.11967 11.734 4.08732C11.897 4.05498 12.0467 3.97504 12.1642 3.85761C12.2817 3.74018 12.3618 3.59054 12.3943 3.42761C12.4267 3.26467 12.4102 3.09577 12.3467 2.94226C12.2831 2.78874 12.1755 2.65751 12.0374 2.56515C11.8993 2.4728 11.7369 2.42347 11.5708 2.4234H11.5705C11.3478 2.4235 11.1342 2.51199 10.9767 2.66943C10.8192 2.82686 10.7307 3.04037 10.7305 3.26306ZM5.00574 12.6978C4.32327 12.6668 3.95233 12.5531 3.70582 12.457C3.379 12.3298 3.14581 12.1783 2.90065 11.9334C2.65548 11.6886 2.50372 11.4556 2.37705 11.1288C2.28095 10.8824 2.16727 10.5114 2.13625 9.8289C2.10231 9.09104 2.09553 8.86939 2.09553 7.00006C2.09553 5.13072 2.10287 4.90969 2.13625 4.17122C2.16733 3.48874 2.28185 3.11842 2.37705 2.87129C2.50428 2.54447 2.65581 2.31129 2.90065 2.06612C3.14548 1.82095 3.37844 1.66919 3.70582 1.54252C3.95222 1.44642 4.32327 1.33274 5.00574 1.30172C5.7436 1.26778 5.96525 1.26101 7.83375 1.26101C9.70225 1.26101 9.92412 1.26834 10.6626 1.30172C11.3451 1.3328 11.7154 1.44732 11.9625 1.54252C12.2893 1.66919 12.5225 1.82129 12.7677 2.06612C13.0129 2.31095 13.1641 2.54447 13.2913 2.87129C13.3874 3.11769 13.5011 3.48874 13.5321 4.17122C13.566 4.90969 13.5728 5.13072 13.5728 7.00006C13.5728 8.86939 13.566 9.09042 13.5321 9.8289C13.501 10.5114 13.3868 10.8823 13.2913 11.1288C13.1641 11.4556 13.0125 11.6888 12.7677 11.9334C12.5229 12.178 12.2893 12.3298 11.9625 12.457C11.7161 12.5531 11.3451 12.6668 10.6626 12.6978C9.92473 12.7318 9.70309 12.7385 7.83375 12.7385C5.96441 12.7385 5.74338 12.7318 5.00574 12.6978ZM4.94778 0.042392C4.20259 0.076328 3.69338 0.194488 3.24869 0.367528C2.78814 0.546224 2.39827 0.78596 2.00868 1.17494C1.61909 1.56391 1.37996 1.9544 1.20127 2.41494C1.02823 2.85992 0.910068 3.36885 0.876132 4.11404C0.841636 4.86041 0.83374 5.09902 0.83374 7C0.83374 8.90098 0.841636 9.13959 0.876132 9.88596C0.910068 10.6312 1.02823 11.1401 1.20127 11.5851C1.37996 12.0453 1.61914 12.4363 2.00868 12.8251C2.39821 13.2139 2.78814 13.4533 3.24869 13.6325C3.69422 13.8055 4.20259 13.9237 4.94778 13.9576C5.69455 13.9915 5.93277 14 7.83375 14C9.73473 14 9.97334 13.9921 10.7197 13.9576C11.465 13.9237 11.9738 13.8055 12.4188 13.6325C12.8791 13.4533 13.2692 13.214 13.6588 12.8251C14.0484 12.4361 14.287 12.0453 14.4662 11.5851C14.6393 11.1401 14.758 10.6312 14.7914 9.88596C14.8253 9.13903 14.8332 8.90098 14.8332 7C14.8332 5.09902 14.8253 4.86041 14.7914 4.11404C14.7574 3.36879 14.6393 2.85964 14.4662 2.41494C14.287 1.95468 14.0478 1.56453 13.6588 1.17494C13.2698 0.785344 12.8791 0.546224 12.4194 0.367528C11.9738 0.194488 11.4649 0.075768 10.7203 0.042392C9.9739 0.008456 9.73529 0 7.83431 0C5.93333 0 5.69455 0.007896 4.94778 0.042392Z" fill="#0F0F0F"/>
</g>
<defs>
<clipPath id="clip0_2359_1757">
<rect width="14" height="14" fill="white" transform="translate(0.944336)"/>
</clipPath>
</defs>
</svg>
