<svg width="15" height="14" viewBox="0 0 15 14" fill="none" xmlns="http://www.w3.org/2000/svg">
<g clip-path="url(#clip0_2359_1752)">
<path d="M13.7967 0H1.8666C1.29512 0 0.833008 0.451172 0.833008 1.00898V12.9883C0.833008 13.5461 1.29512 14 1.8666 14H13.7967C14.3682 14 14.833 13.5461 14.833 12.991V1.00898C14.833 0.451172 14.3682 0 13.7967 0ZM4.98652 11.9301H2.9084V5.24726H4.98652V11.9301ZM3.94746 4.33672C3.28027 4.33672 2.7416 3.79805 2.7416 3.13359C2.7416 2.46914 3.28027 1.93047 3.94746 1.93047C4.61191 1.93047 5.15059 2.46914 5.15059 3.13359C5.15059 3.79531 4.61191 4.33672 3.94746 4.33672ZM12.7631 11.9301H10.6877V8.68164C10.6877 7.90781 10.674 6.90977 9.60762 6.90977C8.52754 6.90977 8.36348 7.75469 8.36348 8.62695V11.9301H6.29082V5.24726H8.28144V6.16055H8.30879C8.58496 5.63555 9.26309 5.08047 10.2721 5.08047C12.3748 5.08047 12.7631 6.46406 12.7631 8.26328V11.9301Z" fill="#0F0F0F"/>
</g>
<defs>
<clipPath id="clip0_2359_1752">
<rect width="14" height="14" fill="white" transform="translate(0.944336)"/>
</clipPath>
</defs>
</svg>
