<svg width="201" height="40" viewBox="0 0 201 40" fill="none" xmlns="http://www.w3.org/2000/svg">
<path d="M35.2348 1.21387H6.76342C3.98494 1.21387 1.70947 3.43366 1.70947 6.14884V33.95C1.70947 36.663 3.98278 38.8849 6.76342 38.8849H35.2348C38.0132 38.8849 40.2887 36.6651 40.2887 33.95V6.14884C40.2887 3.43577 38.0154 1.21387 35.2348 1.21387ZM20.794 7.9154C20.794 7.576 21.0854 7.30406 21.433 7.32725C24.6217 7.54227 27.0504 9.31725 28.2054 10.3291C28.4818 10.5716 28.471 10.9974 28.1817 11.225L21.7763 16.2907C21.3834 16.6027 20.794 16.3287 20.794 15.8333V7.9154ZM10.8135 10.1689C10.8135 9.86535 10.9387 9.5892 11.1438 9.39104C11.3467 9.19288 11.6295 9.06851 11.9404 9.06851H17.2901C17.6032 9.06851 17.8579 9.31726 17.8579 9.62293V17.8907C17.8579 18.1479 17.6766 18.3735 17.4175 18.4304L11.5086 19.7627C11.1524 19.8428 10.8135 19.5793 10.8135 19.223V10.1689ZM28.43 28.7283C28.2335 28.9517 28.0284 29.1689 27.8147 29.3755C25.6644 31.4751 22.6938 32.7737 19.4123 32.7737H12.1174C11.744 32.7737 11.405 32.6261 11.1611 32.3858C10.9171 32.1476 10.7638 31.8166 10.7638 31.4519V23.3464C10.7638 23.0302 10.9884 22.754 11.3035 22.6824L18.9935 20.9495C19.1986 20.9032 19.4145 20.9495 19.5785 21.076L28.3263 27.7501C28.6394 27.9884 28.6869 28.4332 28.4278 28.7283H28.43ZM31.23 19.7205C31.23 21.4196 30.7076 23.0007 29.8117 24.3182C29.6519 24.5543 29.3194 24.6028 29.0906 24.43L23.1364 19.8871C22.8838 19.6952 22.8795 19.3221 23.1299 19.1261L28.8013 14.6422C29.0193 14.4694 29.341 14.5052 29.5094 14.7244C30.5889 16.1136 31.23 17.8444 31.23 19.7226V19.7205Z" fill="white"/>
<g clip-path="url(#clip0_2359_1747)">
<path d="M59.8092 9.01695H52.216V28H59.8092C65.0431 28 69.0295 23.878 69.0295 18.5085C69.0295 13.139 65.0431 9.01695 59.8092 9.01695ZM59.8092 23.8237H56.555V13.1932H59.8092C62.7923 13.1932 64.8533 15.2542 64.8533 18.5085C64.8533 21.7627 62.7923 23.8237 59.8092 23.8237ZM73.3675 13.2475C74.6963 13.2475 75.8081 12.1356 75.8081 10.8068C75.8081 9.47796 74.6963 8.3661 73.3675 8.3661C72.0387 8.3661 70.9268 9.47796 70.9268 10.8068C70.9268 12.1356 72.0387 13.2475 73.3675 13.2475ZM71.3336 28H75.4014V14.4407H71.3336V28ZM87.0289 14.4407L84.2086 23.0373L81.3882 14.4407H76.8865L81.9035 28H86.5137L91.5306 14.4407H87.0289ZM96.1274 22.8475H105.755C105.863 22.3322 105.917 21.7898 105.917 21.2203C105.917 17.1254 102.988 14.061 99.0291 14.061C94.7444 14.061 91.8156 17.1797 91.8156 21.2203C91.8156 25.261 94.6901 28.3797 99.3274 28.3797C101.904 28.3797 103.91 27.4305 105.239 25.5864L101.985 23.7153C101.443 24.3119 100.494 24.7458 99.3817 24.7458C97.8901 24.7458 96.6427 24.2576 96.1274 22.8475ZM96.0461 19.8102C96.4257 18.4271 97.4562 17.6678 99.002 17.6678C100.222 17.6678 101.443 18.2373 101.877 19.8102H96.0461ZM112.292 16.8542V14.4407H108.224V28H112.292V21.8712C112.292 19.1864 114.679 18.5085 116.36 18.7797V14.1695C114.652 14.1695 112.835 15.0373 112.292 16.8542ZM121.715 18.4C121.715 17.9119 122.149 17.6407 122.854 17.6407C123.749 17.6407 124.291 18.1288 124.671 18.8339L128.142 16.9627C127.003 15.0373 125.051 14.061 122.854 14.061C120.034 14.061 117.539 15.5525 117.539 18.5085C117.539 23.2 124.21 22.4136 124.21 23.9051C124.21 24.4475 123.722 24.7458 122.746 24.7458C121.552 24.7458 120.793 24.1763 120.441 23.1458L116.915 25.1525C117.973 27.3492 120.034 28.3797 122.746 28.3797C125.674 28.3797 128.386 27.0508 128.386 23.9322C128.386 18.9153 121.715 19.9458 121.715 18.4ZM132.451 13.2475C133.78 13.2475 134.892 12.1356 134.892 10.8068C134.892 9.47796 133.78 8.3661 132.451 8.3661C131.122 8.3661 130.01 9.47796 130.01 10.8068C130.01 12.1356 131.122 13.2475 132.451 13.2475ZM130.417 28H134.485V14.4407H130.417V28ZM144.919 12.5424V8.63729C140.418 8.3661 138.33 10.6441 138.33 14.4407H136.513V18.3458H138.33V28H142.397V18.3458H144.919V14.4407H142.397C142.397 12.8678 143.401 12.4068 144.919 12.5424ZM148.447 13.2475C149.776 13.2475 150.888 12.1356 150.888 10.8068C150.888 9.47796 149.776 8.3661 148.447 8.3661C147.118 8.3661 146.006 9.47796 146.006 10.8068C146.006 12.1356 147.118 13.2475 148.447 13.2475ZM146.413 28H150.481V14.4407H146.413V28ZM157.091 22.8475H166.719C166.827 22.3322 166.881 21.7898 166.881 21.2203C166.881 17.1254 163.952 14.061 159.993 14.061C155.708 14.061 152.78 17.1797 152.78 21.2203C152.78 25.261 155.654 28.3797 160.291 28.3797C162.868 28.3797 164.874 27.4305 166.203 25.5864L162.949 23.7153C162.407 24.3119 161.458 24.7458 160.346 24.7458C158.854 24.7458 157.607 24.2576 157.091 22.8475ZM157.01 19.8102C157.39 18.4271 158.42 17.6678 159.966 17.6678C161.186 17.6678 162.407 18.2373 162.841 19.8102H157.01ZM178.9 9.01695V15.7153C178.005 14.6847 176.676 14.061 174.859 14.061C171.307 14.061 168.378 17.1797 168.378 21.2203C168.378 25.261 171.307 28.3797 174.859 28.3797C176.676 28.3797 178.005 27.7559 178.9 26.7254V28H182.968V9.01695H178.9ZM175.673 24.5288C173.802 24.5288 172.446 23.2542 172.446 21.2203C172.446 19.1864 173.802 17.9119 175.673 17.9119C177.544 17.9119 178.9 19.1864 178.9 21.2203C178.9 23.2542 177.544 24.5288 175.673 24.5288Z" fill="#0F0F0F"/>
</g>
<defs>
<clipPath id="clip0_2359_1747">
<rect width="132" height="38" fill="white" transform="translate(50.5889)"/>
</clipPath>
</defs>
</svg>
