<svg width="15" height="14" viewBox="0 0 15 14" fill="none" xmlns="http://www.w3.org/2000/svg">
<g clip-path="url(#clip0_2359_1755)">
<path d="M5.33994 12.0936C10.4118 12.0936 13.1854 7.89024 13.1854 4.24524C13.1854 4.12586 13.183 4.00704 13.1776 3.8887C13.7173 3.49805 14.183 3.01437 14.553 2.46032C14.0589 2.68005 13.5273 2.82795 12.9695 2.89463C13.5388 2.55314 13.9759 2.0129 14.1821 1.36894C13.6408 1.69016 13.0487 1.9166 12.4312 2.0385C11.928 1.50233 11.2116 1.16699 10.4184 1.16699C8.89568 1.16699 7.66087 2.4023 7.66087 3.92501C7.66087 4.14149 7.6851 4.35199 7.73241 4.55397C5.44069 4.43861 3.40855 3.34098 2.04855 1.67197C1.80359 2.09292 1.67475 2.57135 1.67518 3.05839C1.67518 4.0154 2.16196 4.86021 2.90224 5.35448C2.46436 5.3411 2.03609 5.22278 1.65344 5.00947C1.65303 5.02105 1.65303 5.03234 1.65303 5.04471C1.65303 6.38057 2.60348 7.49593 3.86518 7.74866C3.62821 7.81322 3.38369 7.84586 3.13809 7.84572C2.96073 7.84572 2.78787 7.82826 2.61987 7.796C2.97092 8.892 3.98884 9.68956 5.19571 9.71185C4.25195 10.4518 3.06311 10.8926 1.77101 10.8926C1.55121 10.8928 1.33158 10.88 1.11328 10.8544C2.33362 11.6368 3.78265 12.0934 5.34008 12.0934" fill="#0F0F0F"/>
</g>
<defs>
<clipPath id="clip0_2359_1755">
<rect width="14" height="14" fill="white" transform="translate(0.944336)"/>
</clipPath>
</defs>
</svg>
