<svg width="15" height="14" viewBox="0 0 15 14" fill="none" xmlns="http://www.w3.org/2000/svg">
<g clip-path="url(#clip0_2359_1760)">
<path d="M14.8049 4.19883C14.8049 4.19883 14.6682 3.23359 14.2471 2.80977C13.7139 2.25195 13.1178 2.24922 12.8443 2.21641C10.8865 2.07422 7.94707 2.07422 7.94707 2.07422H7.9416C7.9416 2.07422 5.00215 2.07422 3.04434 2.21641C2.7709 2.24922 2.1748 2.25195 1.6416 2.80977C1.22051 3.23359 1.08652 4.19883 1.08652 4.19883C1.08652 4.19883 0.944336 5.33359 0.944336 6.46563V7.52656C0.944336 8.65859 1.08379 9.79336 1.08379 9.79336C1.08379 9.79336 1.22051 10.7586 1.63887 11.1824C2.17207 11.7402 2.87207 11.7211 3.18379 11.7813C4.30488 11.8879 7.94434 11.9207 7.94434 11.9207C7.94434 11.9207 10.8865 11.9152 12.8443 11.7758C13.1178 11.743 13.7139 11.7402 14.2471 11.1824C14.6682 10.7586 14.8049 9.79336 14.8049 9.79336C14.8049 9.79336 14.9443 8.66133 14.9443 7.52656V6.46563C14.9443 5.33359 14.8049 4.19883 14.8049 4.19883ZM6.49785 8.81445V4.87969L10.2795 6.85391L6.49785 8.81445Z" fill="#0F0F0F"/>
</g>
<defs>
<clipPath id="clip0_2359_1760">
<rect width="14" height="14" fill="white" transform="translate(0.944336)"/>
</clipPath>
</defs>
</svg>
